<?xml version="1.0" encoding="utf-8"?>
<svg version="1.1" width="143px" height="158px" viewBox="0 0 143 158" enable-background="new 0 0 360 155" xmlns="http://www.w3.org/2000/svg" xmlns:bx="https://boxy-svg.com">
  <defs>
    <view id="view-1" viewBox="240.561 92.206 16.246 1">
      <title>View 1</title>
    </view>
  </defs>
  <g transform="matrix(1, 0, 0, 1, -216.582001, 1.716)" bx:origin="-0.037476 -0.033685">
    <path fill="#6FAA46" d="M 221.582 111.447 C 221.582 107.955 224.415 105.125 227.907 105.125 C 231.399 105.125 234.232 107.955 234.232 111.447 C 234.232 114.939 231.399 117.769 227.907 117.769 C 224.415 117.769 221.582 114.939 221.582 111.447 M 281.404 9.609 C 281.404 13.101 284.237 15.931 287.728 15.931 C 291.22 15.931 294.054 13.101 294.054 9.609 C 294.054 6.117 291.22 3.284 287.728 3.284 C 284.237 3.284 281.404 6.117 281.404 9.609 M 281.404 26.581 C 281.404 30.073 284.237 32.903 287.728 32.903 C 291.22 32.903 294.054 30.073 294.054 26.581 C 294.054 23.089 291.22 20.259 287.728 20.259 C 284.237 20.259 281.404 23.089 281.404 26.581 M 281.404 43.554 C 281.404 47.045 284.237 49.879 287.728 49.879 C 291.22 49.879 294.054 47.045 294.054 43.554 C 294.054 40.065 291.22 37.232 287.728 37.232 C 284.237 37.231 281.404 40.064 281.404 43.554 M 281.404 60.528 C 281.404 64.02 284.237 66.85 287.728 66.85 C 291.22 66.85 294.054 64.02 294.054 60.528 C 294.054 57.036 291.22 54.206 287.728 54.206 C 284.237 54.206 281.404 57.036 281.404 60.528 M 281.404 77.5 C 281.404 80.992 284.237 83.825 287.728 83.825 C 291.22 83.825 294.054 80.992 294.054 77.5 C 294.054 74.011 291.22 71.178 287.728 71.178 C 284.237 71.178 281.404 74.011 281.404 77.5 M 281.404 94.476 C 281.404 97.965 284.237 100.798 287.728 100.798 C 291.22 100.798 294.054 97.965 294.054 94.476 C 294.054 90.984 291.22 88.151 287.728 88.151 C 284.237 88.15 281.404 90.983 281.404 94.476 M 281.404 111.447 C 281.404 114.939 284.237 117.769 287.728 117.769 C 291.22 117.769 294.054 114.939 294.054 111.447 C 294.054 107.955 291.22 105.125 287.728 105.125 C 284.237 105.125 281.404 107.955 281.404 111.447 M 281.404 128.42 C 281.404 131.911 284.237 134.745 287.728 134.745 C 291.22 134.745 294.054 131.911 294.054 128.42 C 294.054 124.931 291.22 122.098 287.728 122.098 C 284.237 122.098 281.404 124.931 281.404 128.42 M 281.404 145.395 C 281.404 148.887 284.237 151.717 287.728 151.717 C 291.22 151.717 294.054 148.887 294.054 145.395 C 294.054 141.903 291.22 139.07 287.728 139.07 C 284.237 139.069 281.404 141.902 281.404 145.395 M 297.158 18.094 C 297.158 21.586 299.988 24.419 303.48 24.419 C 306.975 24.419 309.805 21.586 309.805 18.094 C 309.805 14.605 306.975 11.772 303.48 11.772 C 299.988 11.771 297.158 14.604 297.158 18.094 M 297.158 35.068 C 297.158 38.56 299.988 41.39 303.48 41.39 C 306.975 41.39 309.805 38.56 309.805 35.068 C 309.805 31.576 306.975 28.743 303.48 28.743 C 299.988 28.743 297.158 31.576 297.158 35.068 M 297.158 52.041 C 297.158 55.533 299.988 58.366 303.48 58.366 C 306.975 58.366 309.805 55.533 309.805 52.041 C 309.805 48.549 306.975 45.719 303.48 45.719 C 299.988 45.719 297.158 48.549 297.158 52.041 M 297.158 69.016 C 297.158 72.505 299.988 75.338 303.48 75.338 C 306.975 75.338 309.805 72.505 309.805 69.016 C 309.805 65.524 306.975 62.691 303.48 62.691 C 299.988 62.69 297.158 65.523 297.158 69.016 M 297.158 85.988 C 297.158 89.479 299.988 92.31 303.48 92.31 C 306.975 92.31 309.805 89.479 309.805 85.988 C 309.805 82.496 306.975 79.666 303.48 79.666 C 299.988 79.666 297.158 82.496 297.158 85.988 M 297.158 102.96 C 297.158 106.452 299.988 109.285 303.48 109.285 C 306.975 109.285 309.805 106.452 309.805 102.96 C 309.805 99.471 306.975 96.638 303.48 96.638 C 299.988 96.638 297.158 99.471 297.158 102.96 M 297.158 119.935 C 297.158 123.427 299.988 126.257 303.48 126.257 C 306.975 126.257 309.805 123.427 309.805 119.935 C 309.805 116.443 306.975 113.61 303.48 113.61 C 299.988 113.609 297.158 116.442 297.158 119.935 M 297.158 136.907 C 297.158 140.399 299.988 143.229 303.48 143.229 C 306.975 143.229 309.805 140.399 309.805 136.907 C 309.805 133.415 306.975 130.585 303.48 130.585 C 299.988 130.585 297.158 133.415 297.158 136.907 M 312.076 26.581 C 312.076 30.073 314.909 32.903 318.401 32.903 C 321.893 32.903 324.726 30.073 324.726 26.581 C 324.726 23.089 321.893 20.259 318.401 20.259 C 314.909 20.259 312.076 23.089 312.076 26.581 M 312.076 43.554 C 312.076 47.045 314.909 49.879 318.401 49.879 C 321.893 49.879 324.726 47.045 324.726 43.554 C 324.726 40.065 321.893 37.232 318.401 37.232 C 314.909 37.232 312.076 40.064 312.076 43.554 M 312.076 60.528 C 312.076 64.02 314.909 66.85 318.401 66.85 C 321.893 66.85 324.726 64.02 324.726 60.528 C 324.726 57.036 321.893 54.206 318.401 54.206 C 314.909 54.206 312.076 57.036 312.076 60.528 M 312.076 77.5 C 312.076 80.992 314.909 83.825 318.401 83.825 C 321.893 83.825 324.726 80.992 324.726 77.5 C 324.726 74.011 321.893 71.178 318.401 71.178 C 314.909 71.178 312.076 74.011 312.076 77.5 M 312.076 94.476 C 312.076 97.965 314.909 100.798 318.401 100.798 C 321.893 100.798 324.726 97.965 324.726 94.476 C 324.726 90.984 321.893 88.151 318.401 88.151 C 314.909 88.151 312.076 90.983 312.076 94.476 M 312.076 111.447 C 312.076 114.939 314.909 117.769 318.401 117.769 C 321.893 117.769 324.726 114.939 324.726 111.447 C 324.726 107.955 321.893 105.125 318.401 105.125 C 314.909 105.125 312.076 107.955 312.076 111.447 M 312.076 128.42 C 312.076 131.911 314.909 134.745 318.401 134.745 C 321.893 134.745 324.726 131.911 324.726 128.42 C 324.726 124.931 321.893 122.098 318.401 122.098 C 314.909 122.098 312.076 124.931 312.076 128.42 M 327.189 35.068 C 327.189 38.56 330.019 41.39 333.511 41.39 C 337.006 41.39 339.839 38.56 339.839 35.068 C 339.839 31.576 337.006 28.743 333.511 28.743 C 330.02 28.743 327.189 31.576 327.189 35.068 M 327.189 52.041 C 327.189 55.533 330.019 58.366 333.511 58.366 C 337.006 58.366 339.839 55.533 339.839 52.041 C 339.839 48.549 337.006 45.719 333.511 45.719 C 330.02 45.719 327.189 48.549 327.189 52.041 M 327.189 69.016 C 327.189 72.505 330.019 75.338 333.511 75.338 C 337.006 75.338 339.839 72.505 339.839 69.016 C 339.839 65.524 337.006 62.691 333.511 62.691 C 330.02 62.69 327.189 65.523 327.189 69.016 M 327.189 85.988 C 327.189 89.479 330.019 92.31 333.511 92.31 C 337.006 92.31 339.839 89.479 339.839 85.988 C 339.839 82.496 337.006 79.666 333.511 79.666 C 330.02 79.666 327.189 82.496 327.189 85.988 M 327.189 102.96 C 327.189 106.452 330.019 109.285 333.511 109.285 C 337.006 109.285 339.839 106.452 339.839 102.96 C 339.839 99.471 337.006 96.638 333.511 96.638 C 330.02 96.638 327.189 99.471 327.189 102.96 M 327.189 119.935 C 327.189 123.427 330.019 126.257 333.511 126.257 C 337.006 126.257 339.839 123.427 339.839 119.935 C 339.839 116.443 337.006 113.61 333.511 113.61 C 330.02 113.609 327.189 116.442 327.189 119.935 M 342.35 43.554 C 342.35 47.045 345.183 49.879 348.672 49.879 C 352.166 49.879 355 47.045 355 43.554 C 355 40.065 352.166 37.232 348.672 37.232 C 345.183 37.231 342.35 40.064 342.35 43.554 M 342.35 60.528 C 342.35 64.02 345.183 66.85 348.672 66.85 C 352.166 66.85 355 64.02 355 60.528 C 355 57.036 352.166 54.206 348.672 54.206 C 345.183 54.206 342.35 57.036 342.35 60.528 M 342.35 77.5 C 342.35 80.992 345.183 83.825 348.672 83.825 C 352.166 83.825 355 80.992 355 77.5 C 355 74.011 352.166 71.178 348.672 71.178 C 345.183 71.178 342.35 74.011 342.35 77.5 M 342.35 94.476 C 342.35 97.965 345.183 100.798 348.672 100.798 C 352.166 100.798 355 97.965 355 94.476 C 355 90.984 352.166 88.151 348.672 88.151 C 345.183 88.15 342.35 90.983 342.35 94.476 M 342.35 111.447 C 342.35 114.939 345.183 117.769 348.672 117.769 C 352.166 117.769 355 114.939 355 111.447 C 355 107.955 352.166 105.125 348.672 105.125 C 345.183 105.125 342.35 107.955 342.35 111.447 M 266.677 18.094 C 266.677 21.586 269.507 24.419 272.999 24.419 C 276.494 24.419 279.327 21.586 279.327 18.094 C 279.327 14.605 276.494 11.772 272.999 11.772 C 269.507 11.771 266.677 14.604 266.677 18.094 M 266.677 35.068 C 266.677 38.56 269.507 41.39 272.999 41.39 C 276.494 41.39 279.327 38.56 279.327 35.068 C 279.327 31.576 276.494 28.743 272.999 28.743 C 269.507 28.743 266.677 31.576 266.677 35.068 M 266.677 52.041 C 266.677 55.533 269.507 58.366 272.999 58.366 C 276.494 58.366 279.327 55.533 279.327 52.041 C 279.327 48.549 276.494 45.719 272.999 45.719 C 269.507 45.719 266.677 48.549 266.677 52.041 M 266.677 69.016 C 266.677 72.505 269.507 75.338 272.999 75.338 C 276.494 75.338 279.327 72.505 279.327 69.016 C 279.327 65.524 276.494 62.691 272.999 62.691 C 269.507 62.69 266.677 65.523 266.677 69.016 M 266.677 85.988 C 266.677 89.479 269.507 92.31 272.999 92.31 C 276.494 92.31 279.327 89.479 279.327 85.988 C 279.327 82.496 276.494 79.666 272.999 79.666 C 269.507 79.666 266.677 82.496 266.677 85.988 M 266.677 102.96 C 266.677 106.452 269.507 109.285 272.999 109.285 C 276.494 109.285 279.327 106.452 279.327 102.96 C 279.327 99.471 276.494 96.638 272.999 96.638 C 269.507 96.638 266.677 99.471 266.677 102.96 M 266.677 119.935 C 266.677 123.427 269.507 126.257 272.999 126.257 C 276.494 126.257 279.327 123.427 279.327 119.935 C 279.327 116.443 276.494 113.61 272.999 113.61 C 269.507 113.609 266.677 116.442 266.677 119.935 M 266.677 136.907 C 266.677 140.399 269.507 143.229 272.999 143.229 C 276.494 143.229 279.327 140.399 279.327 136.907 C 279.327 133.415 276.494 130.585 272.999 130.585 C 269.507 130.585 266.677 133.415 266.677 136.907 M 251.69 26.581 C 251.69 30.073 254.523 32.903 258.015 32.903 C 261.51 32.903 264.34 30.073 264.34 26.581 C 264.34 23.089 261.51 20.259 258.015 20.259 C 254.523 20.259 251.69 23.089 251.69 26.581 M 251.69 43.554 C 251.69 47.045 254.523 49.879 258.015 49.879 C 261.51 49.879 264.34 47.045 264.34 43.554 C 264.34 40.065 261.51 37.232 258.015 37.232 C 254.523 37.231 251.69 40.064 251.69 43.554 M 251.69 60.528 C 251.69 64.02 254.523 66.85 258.015 66.85 C 261.51 66.85 264.34 64.02 264.34 60.528 C 264.34 57.036 261.51 54.206 258.015 54.206 C 254.523 54.206 251.69 57.036 251.69 60.528 M 251.69 77.5 C 251.69 80.992 254.523 83.825 258.015 83.825 C 261.51 83.825 264.34 80.992 264.34 77.5 C 264.34 74.011 261.51 71.178 258.015 71.178 C 254.523 71.178 251.69 74.011 251.69 77.5 M 251.69 111.447 C 251.69 114.939 254.523 117.769 258.015 117.769 C 261.51 117.769 264.34 114.939 264.34 111.447 C 264.34 107.955 261.51 105.125 258.015 105.125 C 254.523 105.125 251.69 107.955 251.69 111.447 M 251.69 128.42 C 251.69 131.911 254.523 134.745 258.015 134.745 C 261.51 134.745 264.34 131.911 264.34 128.42 C 264.34 124.931 261.51 122.098 258.015 122.098 C 254.523 122.098 251.69 124.931 251.69 128.42 M 236.389 35.068 C 236.389 38.56 239.22 41.39 242.711 41.39 C 246.206 41.39 249.033 38.56 249.033 35.068 C 249.033 31.576 246.206 28.743 242.711 28.743 C 239.22 28.743 236.389 31.576 236.389 35.068 M 236.389 52.041 C 236.389 55.533 239.22 58.366 242.711 58.366 C 246.206 58.366 249.033 55.533 249.033 52.041 C 249.033 48.549 246.206 45.719 242.711 45.719 C 239.22 45.719 236.389 48.549 236.389 52.041 M 236.389 69.016 C 236.389 72.505 239.22 75.338 242.711 75.338 C 246.206 75.338 249.033 72.505 249.033 69.016 C 249.033 65.524 246.206 62.691 242.711 62.691 C 239.22 62.69 236.389 65.523 236.389 69.016 M 236.389 85.988 C 236.389 89.479 239.22 92.31 242.711 92.31 C 246.206 92.31 249.033 89.479 249.033 85.988 C 249.033 82.496 246.206 79.666 242.711 79.666 C 239.22 79.666 236.389 82.496 236.389 85.988 M 236.389 102.96 C 236.389 106.452 239.22 109.285 242.711 109.285 C 246.206 109.285 249.033 106.452 249.033 102.96 C 249.033 99.471 246.206 96.638 242.711 96.638 C 239.22 96.638 236.389 99.471 236.389 102.96 M 236.389 119.935 C 236.389 123.427 239.22 126.257 242.711 126.257 C 246.206 126.257 249.033 123.427 249.033 119.935 C 249.033 116.443 246.206 113.61 242.711 113.61 C 239.22 113.609 236.389 116.442 236.389 119.935 M 221.582 43.554 C 221.582 47.045 224.415 49.879 227.907 49.879 C 231.399 49.879 234.232 47.045 234.232 43.554 C 234.232 40.065 231.399 37.232 227.907 37.232 C 224.415 37.232 221.582 40.064 221.582 43.554 M 221.582 60.528 C 221.582 64.02 224.415 66.85 227.907 66.85 C 231.399 66.85 234.232 64.02 234.232 60.528 C 234.232 57.036 231.399 54.206 227.907 54.206 C 224.415 54.206 221.582 57.036 221.582 60.528 M 221.582 77.5 C 221.582 80.992 224.415 83.825 227.907 83.825 C 231.399 83.825 234.232 80.992 234.232 77.5 C 234.232 74.011 231.399 71.178 227.907 71.178 C 224.415 71.178 221.582 74.011 221.582 77.5 M 221.582 94.476 C 221.582 97.965 224.415 100.798 227.907 100.798 C 231.399 100.798 234.232 97.965 234.232 94.476 C 234.232 90.984 231.399 88.151 227.907 88.151 C 224.415 88.151 221.582 90.983 221.582 94.476"/>
    <path fill="#E2001A" d="M 251.69 94.476 C 251.69 90.984 254.523 88.151 258.015 88.151 C 261.51 88.151 264.34 90.984 264.34 94.476 C 264.34 97.965 261.51 100.798 258.015 100.798 C 254.523 100.798 251.69 97.965 251.69 94.476"/>
  </g>
</svg>